/* XPM */
static char *result[] = {
/* columns rows colors chars-per-pixel */
"50 50 8 1",
"  c None",
"a c #0e0d0e",
"b c #d2202c",
"c c #eadfd1",
"d c #7c776f",
"e c #b3aaa1",
"f c #0a7030",
"g c #eba724",
"                                                  ",
"                                                  ",
"                                                  ",
"                                                  ",
"                                                  ",
"                                                  ",
"                                                  ",
"                                                  ",
"                                                  ",
"                                                  ",
"                                                  ",
"                                                  ",
"                                                  ",
"                                                  ",
"                aaaaaaaaaaa                       ",
"                aaaaaaaaaaa                       ",
"              aaabbbbbbbbaaa                      ",
"              aabaaabbbbbbba                      ",
"              aabaaabbbbbbba                      ",
"              aaaaaaaabbbaaaaaaaa                 ",
"                 aaccccddddddddaa                 ",
"                 aaccccddddddddaa                 ",
"                 aacaaaaaaaaaaaaaa                ",
"                 aadaaccccceeeeeea                ",
"                 aadaaccccceeeeeea                ",
"                 aadaacaaeeaeeaeea                ",
"                 aadaacaaeeaeeaeea                ",
"                 aadaaeaaeeaeeaeea                ",
"                 aadaaeaaeeaeeaeea                ",
"                 aadaaeaaeeaeeaeea                ",
"                 aadaaeeeeeeeeeeea                ",
"                aaaaaaaaaaaaaaaaaa                ",
"                aaaaaaaaaaaaaaaaaa                ",
"                afffffgggggggggaa                 ",
"                afffffgaaaaaaaaaa                 ",
"                afffffgaaaaaaaaaa                 ",
"                afffffgaaddddddaa                 ",
"                afffffgaaddddddaa                 ",
"                afffffgaaddddddaa                 ",
"                afffffgaaaaaeeeaa                 ",
"                afffffgaaaaaeeeaa                 ",
"                aggggggaaaaaeeaaa                 ",
"                aaaaaaaaa  aaaa                   ",
"                aaaaaaaaa  aaaa                   ",
"                                                  ",
"                                                  ",
"                                                  ",
"                                                  ",
"                                                  ",
"                                                  "
};