/* XPM */
static char *result[] = {
/* columns rows colors chars-per-pixel */
"50 50 10 1",
"  c None",
"a c #211f30",
"b c #e44a4a",
"c c #72a11d",
"d c #cc3048",
"e c #9c1b4d",
"f c #28860f",
"g c #076029",
"h c #ffffff",
"i c #a4cc42",
"                                                  ",
"                                                  ",
"                                                  ",
"                                                  ",
"                                                  ",
"                                                  ",
"                                                  ",
"                                                  ",
"                                                  ",
"        aaaaa    aaaaaaaaaa    aaaaaaa            ",
"        aaaaa    aaaaaaaaaa    aaaaaaa            ",
"      aabbbbba  acccccccccca  accccccca           ",
"      aabbbbba  acccccccccca  accccccca           ",
"      aadddddeaaaaaaaaaaaaaaaaaaaaaaaaa           ",
"        aaaeeaeedbbbbbdbbddddddbbdbbbbbaa         ",
"        aaaeeaeedbbbbbdbbddddddbbdbbbbbaa         ",
"      aadeeaaaaaaeeeeedeeddddddeedeeeeaaa         ",
"      aabddaaeeedddddddddddddddddddddddaa         ",
"      aabddaaeeedddddddddddddddddddddddaa         ",
"      aabddaaaaaaaaaaaaaaaaaaaaaaaaaaaaaa         ",
"      aabaaaaffffffghhhhhhhgffghhhhhhhgffa        ",
"      aabaaaaffffffghhhhhhhgffghhhhhhhgffa        ",
"        aaaffccccccfgggggggfccfgggggggfcca        ",
"         aacccccccccccccccccccccccccccccca        ",
"         aacccccccccccccccccccccccccccccca        ",
"         aaccccccccgggggggggggggggggggccca        ",
"         aaccccccccgggggggggggggggggggccca        ",
"         aaccccccffcccccccccccccccccccfcca        ",
"         aaaaaffcccccccccffffffffcccccccca        ",
"         aaaaaffcccccccccffffffffcccccccca        ",
"        affcccaafcccccccccccccccccccccfaafaa      ",
"        affcccccccccccccccccccccccffffafffaa      ",
"        affcccccccccccccccccccccccffffafffaa      ",
"        affcccccccccccccccccccccccaaaaffffaa      ",
"         aafffcccccccciiiiiiiiiiicccaafffa        ",
"         aafffcccccccciiiiiiiiiiicccaafffa        ",
"           aaaaaaaaciiiiiiiiiiiiiiccaaaaa         ",
"           aaaaaaaaciiiiiiiiiiiiiiccaaaaa         ",
"              aafccciiiiiiiiiiiiiiccaa            ",
"              aafccciiiiiiiiiiiiiiccaa            ",
"              aafccciiiiiiiiiiiiiiccaa            ",
"              aafccccccaacciiiiiiiccaa            ",
"                afffcccaaaaaaaciicccffa           ",
"                afffcccaaaaaaaciicccffa           ",
"                 aafcccaa     aaaccccca           ",
"                   aaaa       affccccca           ",
"                   aaaa       affccccca           ",
"                               aafcccca           ",
"                                 aaaaa            ",
"                                 aaaaa            "
};